<svg width="164" height="62" viewBox="0 0 164 62" fill="none" xmlns="http://www.w3.org/2000/svg">
<g clip-path="url(#clip0_8402_3801)">
<path d="M9.91626 20.0435L17.4673 15.663L17.3699 26.2039H26.3324L26.4479 0L0 14.8711V46.1733L26.3324 61.8459V34.8716L17.3699 34.941V45.2044L9.98196 40.9052L9.91626 20.0435Z" fill="#F4DC00"/>
<path d="M49.452 20.0435L41.901 15.663L41.9984 26.2039H33.036L32.9204 0L59.3683 14.8711V46.1733L33.036 61.8459V34.8716L41.9984 34.941V45.2044L49.3863 40.9052L49.452 20.0435Z" fill="#0060B7"/>
<path d="M82.7921 9.25635C85.1234 9.25635 87.0672 10.1296 88.6236 11.8473C90.2027 13.5651 90.9798 15.6943 90.9798 18.235C90.9798 20.7757 90.2027 22.905 88.6236 24.6227C87.0695 26.3405 85.1256 27.2137 82.7921 27.2137H76.0386V9.25635H82.7921ZM82.7921 23.8284C84.2738 23.8284 85.4655 23.3165 86.3876 22.2901C87.3096 21.2375 87.7718 19.9049 87.7718 18.2374C87.7718 16.5699 87.3096 15.235 86.3876 14.2086C85.4655 13.156 84.2738 12.644 82.7921 12.644H79.3916V23.8284H82.7921Z" fill="#0060B7"/>
<path d="M96.0429 23.8261H105.497V27.2113H92.6899V9.25635H105.375V12.6416H96.0429V16.4646H104.768V19.7996H96.0429V23.8284V23.8261Z" fill="#0060B7"/>
<path d="M111.098 23.8261H119.852V27.2113H107.745V9.25635H111.098V23.8284V23.8261Z" fill="#0060B7"/>
<path d="M129.766 9.25635V12.6416H125.174V27.2137H121.821V12.6416H117.253V9.25635H129.766Z" fill="#0060B7"/>
<path d="M139.931 27.2137L138.912 23.9816H132.133L131.114 27.2137H127.494L133.445 9.25635H137.6L143.577 27.2137H139.931ZM133.203 20.6729H137.868L135.536 13.3354L133.205 20.6729H133.203Z" fill="#0060B7"/>
<path d="M154.907 49.2044H163.661V52.5897H151.554V34.6323H154.907V49.2044Z" fill="#F4DC00"/>
<path d="M82.7921 34.6323C85.1234 34.6323 87.0672 35.5056 88.6236 37.2233C90.2027 38.941 90.9798 41.0703 90.9798 43.611C90.9798 46.1517 90.2027 48.281 88.6236 49.9987C87.0695 51.7164 85.1256 52.5897 82.7921 52.5897H76.0386V34.6323H82.7921ZM82.7921 49.2044C84.2738 49.2044 85.4655 48.6925 86.3876 47.6661C87.3096 46.6135 87.7718 45.2809 87.7718 43.6134C87.7718 41.9459 87.3096 40.6109 86.3876 39.5846C85.4655 38.5319 84.2738 38.02 82.7921 38.02H79.3916V49.2044H82.7921Z" fill="#F4DC00"/>
<path d="M93.0234 34.6323H96.3764V52.5897H93.0234V34.6323Z" fill="#F4DC00"/>
<path d="M117.489 34.6323H120.842V52.5897H117.489V34.6323Z" fill="#F4DC00"/>
<path d="M115.742 42.5846V43.9697C115.742 46.5344 114.965 48.6134 113.411 50.2043C111.857 51.7953 109.84 52.5896 107.387 52.5896C104.763 52.5896 102.577 51.6924 100.851 49.8957C99.1267 48.0751 98.2749 45.8669 98.2749 43.276C98.2749 40.685 99.1245 38.4529 100.826 36.6323C102.55 34.8116 104.664 33.9121 107.192 33.9121C110.375 33.9121 113.144 35.5533 114.603 38.094L111.737 39.8381C110.935 38.3763 109.186 37.35 107.169 37.35C105.543 37.35 104.206 37.9146 103.162 39.0438C102.117 40.1467 101.608 41.5582 101.608 43.276C101.608 44.9937 102.142 46.3813 103.187 47.4842C104.256 48.5871 105.665 49.1254 107.414 49.1254C110.013 49.1254 111.762 47.843 112.371 45.7138H107.222V42.5846H115.749H115.742Z" fill="#F4DC00"/>
<path d="M135.255 34.6323V38.0176H130.663V52.5897H127.31V38.0176H122.743V34.6323H135.255Z" fill="#F4DC00"/>
<path d="M145.894 52.5897L144.875 49.3575H138.096L137.077 52.5897H133.457L139.408 34.6323H143.563L149.54 52.5897H145.897H145.894ZM139.166 46.0488H143.83L141.499 38.7114L139.168 46.0488H139.166Z" fill="#F4DC00"/>
</g>
<defs>
<clipPath id="clip0_8402_3801">
<rect width="163.66" height="61.8459" fill="white"/>
</clipPath>
</defs>
</svg>
